<?xml version="1.0" encoding="utf-8"?>
<!-- Generator: Adobe Illustrator 18.0.0, SVG Export Plug-In . SVG Version: 6.00 Build 0)  -->
<!DOCTYPE svg PUBLIC "-//W3C//DTD SVG 1.1//EN" "http://www.w3.org/Graphics/SVG/1.1/DTD/svg11.dtd">
<svg version="1.1" id="Layer_1" xmlns="http://www.w3.org/2000/svg" xmlns:xlink="http://www.w3.org/1999/xlink" x="0px" y="0px"
	 viewBox="0 0 30 30" enable-background="new 0 0 30 30" xml:space="preserve">
<path fill="#EAEAEA" d="M27,9.4c0-0.1,0-0.3,0-0.4c0-3.3-2.7-6-6-6c-3,0-5.4,2.2-5.9,5L15,8l-0.1,0C14.4,5.2,12,3,9,3
	C5.7,3,3,5.7,3,9c0,0.1,0,0.2,0,0.4c0,0.5,0.1,1,0.3,1.5C4,13.8,6.6,19.6,15,26c8.4-6.4,11-12.2,11.7-15.2C26.9,10.3,27,9.9,27,9.4z
	"/>
</svg>
