<?xml version="1.0" encoding="utf-8"?>
<!-- Generator: Adobe Illustrator 18.0.0, SVG Export Plug-In . SVG Version: 6.00 Build 0)  -->
<!DOCTYPE svg PUBLIC "-//W3C//DTD SVG 1.1//EN" "http://www.w3.org/Graphics/SVG/1.1/DTD/svg11.dtd">
<svg version="1.1" id="Layer_1" xmlns="http://www.w3.org/2000/svg" xmlns:xlink="http://www.w3.org/1999/xlink" x="0px" y="0px"
	 viewBox="0 0 60 60" enable-background="new 0 0 60 60" xml:space="preserve">
<polygon fill="#EAEAEA" points="51,28 50,28 50,27 49,27 49,26 48,26 48,25 47,25 47,24 46,24 46,23 45,23 45,22 45,14 42,14 42,19 
	41,19 41,18 40,18 40,17 39,17 39,16 38,16 38,15 37,15 37,14 36,14 36,13 35,13 35,12 34,12 34,11 33,11 33,10 32,10 32,9 31,9 
	31,8 30,8 30,7 29,7 29,8 28,8 28,9 27,9 27,10 26,10 26,11 25,11 25,12 24,12 24,13 23,13 23,14 22,14 22,15 21,15 21,16 20,16 
	20,17 19,17 19,18 18,18 18,19 17,19 17,20 16,20 16,21 15,21 15,22 14,22 14,23 13,23 13,24 12,24 12,25 11,25 11,26 10,26 10,27 
	9,27 9,28 8,28 8,29 14,29 14,53 17,53 17,39 27,39 27,53 45,53 45,29 51,29 "/>
</svg>
