<?xml version="1.0" encoding="utf-8"?>
<!-- Generator: Adobe Illustrator 18.0.0, SVG Export Plug-In . SVG Version: 6.00 Build 0)  -->
<!DOCTYPE svg PUBLIC "-//W3C//DTD SVG 1.1//EN" "http://www.w3.org/Graphics/SVG/1.1/DTD/svg11.dtd">
<svg version="1.1" id="Layer_1" xmlns="http://www.w3.org/2000/svg" xmlns:xlink="http://www.w3.org/1999/xlink" x="0px" y="0px"
	 viewBox="0 0 60 60" enable-background="new 0 0 60 60" xml:space="preserve">
<path fill="#EAEAEA" d="M54,19.7c0-0.3,0-0.5,0-0.7c0-6.6-5.4-12-12-12c-5.9,0-10.9,4.3-11.8,10L30,17l-0.2,0C28.9,11.3,23.9,7,18,7
	C11.4,7,6,12.4,6,19c0,0.2,0,0.4,0,0.7c0.1,1,0.2,2,0.5,2.9C8,28.6,13.2,40.3,30,53c16.8-12.7,22-24.4,23.4-30.4
	C53.7,21.7,53.9,20.7,54,19.7z"/>
</svg>
