<?xml version="1.0" encoding="utf-8"?>
<!-- Generator: Adobe Illustrator 18.0.0, SVG Export Plug-In . SVG Version: 6.00 Build 0)  -->
<!DOCTYPE svg PUBLIC "-//W3C//DTD SVG 1.1//EN" "http://www.w3.org/Graphics/SVG/1.1/DTD/svg11.dtd">
<svg version="1.1" id="Layer_1" xmlns="http://www.w3.org/2000/svg" xmlns:xlink="http://www.w3.org/1999/xlink" x="0px" y="0px"
	 viewBox="0 0 60 60" enable-background="new 0 0 60 60" xml:space="preserve">
<g>
	<polygon opacity="0.6" fill="#595655" points="59,60 1,60 1,1 60,1 	"/>
	<path fill="#FFFFFF" d="M0,0v60h60V0H0z M59,59H1V1h58V59z"/>
</g>
<polygon fill="#FFFFFF" points="40,29 39,29 39,28 38,28 38,27 37,27 37,26 36,26 36,25 35,25 35,24 34,24 34,23 33,23 33,22 32,22 
	32,21 31,21 31,20 30,20 30,19 29,19 29,18 28,18 28,17 27,17 27,16 26,16 26,15 25,15 25,14 24,14 24,13 23,13 23,12 22,12 22,11 
	21,11 21,10 20,10 20,49 21,49 21,48 22,48 22,47 23,47 23,46 24,46 24,45 25,45 25,44 26,44 26,43 27,43 27,42 28,42 28,41 29,41 
	29,40 30,40 30,39 31,39 31,38 32,38 32,37 33,37 33,36 34,36 34,35 35,35 35,34 36,34 36,33 37,33 37,32 38,32 38,31 39,31 39,30 
	40,30 "/>
</svg>
