<?xml version="1.0" encoding="utf-8"?>
<!-- Generator: Adobe Illustrator 18.0.0, SVG Export Plug-In . SVG Version: 6.00 Build 0)  -->
<!DOCTYPE svg PUBLIC "-//W3C//DTD SVG 1.1//EN" "http://www.w3.org/Graphics/SVG/1.1/DTD/svg11.dtd">
<svg version="1.1" id="Layer_1" xmlns="http://www.w3.org/2000/svg" xmlns:xlink="http://www.w3.org/1999/xlink" x="0px" y="0px"
	 viewBox="0 0 60 60" enable-background="new 0 0 60 60" xml:space="preserve">
<path fill="#EAEAEA" d="M31,7C18.3,7,8,17.3,8,30c0,12.7,10.3,23,23,23s23-10.3,23-23C54,17.3,43.7,7,31,7z M12,28c0-2.8,2.3-5,5-5
	c2.8,0,5,2.3,5,5c0,2.8-2.3,5-5,5C14.3,33,12,30.8,12,28z M25,47c-2.8,0-5-2.3-5-5c0-2.8,2.3-5,5-5c2.8,0,5,2.3,5,5
	C30,44.7,27.7,47,25,47z M31,33c-1.7,0-3-1.4-3-3s1.4-3,3-3c1.7,0,3,1.4,3,3S32.7,33,31,33z M29,21c-2.8,0-5-2.2-5-5
	c0-2.8,2.2-5,5-5s5,2.2,5,5C34,18.8,31.8,21,29,21z M41,45.1c-2.8,0-5-2.3-5-5c0-2.8,2.3-5,5-5c2.8,0,5,2.3,5,5
	C46.1,42.8,43.8,45.1,41,45.1z M42.9,29c-2.8,0-5-2.3-5-5c0-2.8,2.3-5,5-5c2.8,0,5,2.3,5,5C48,26.7,45.7,29,42.9,29z"/>
<path fill="#EAEAEA" d="M11.5,44H6v9h18.1C19,51.5,14.6,48.3,11.5,44z"/>
</svg>
