<?xml version="1.0" encoding="utf-8"?>
<!-- Generator: Adobe Illustrator 18.0.0, SVG Export Plug-In . SVG Version: 6.00 Build 0)  -->
<!DOCTYPE svg PUBLIC "-//W3C//DTD SVG 1.1//EN" "http://www.w3.org/Graphics/SVG/1.1/DTD/svg11.dtd">
<svg version="1.1" id="Layer_1" xmlns="http://www.w3.org/2000/svg" xmlns:xlink="http://www.w3.org/1999/xlink" x="0px" y="0px"
	 viewBox="0 0 30 30" enable-background="new 0 0 30 30" xml:space="preserve">
<polygon fill="#EAEAEA" points="24,13 24,12 23,12 23,11 22,11 22,10 22,6 20,6 20,8 19,8 19,7 18,7 18,6 17,6 17,5 16,5 16,4 15,4 
	15,3 14,3 14,4 13,4 13,5 12,5 12,6 11,6 11,7 10,7 10,8 9,8 9,9 8,9 8,10 7,10 7,11 6,11 6,12 5,12 5,13 4,13 4,14 7,14 7,26 9,26 
	9,20 13,20 13,26 22,26 22,14 25,14 25,13 "/>
</svg>
