<?xml version="1.0" encoding="utf-8"?>
<!-- Generator: Adobe Illustrator 18.0.0, SVG Export Plug-In . SVG Version: 6.00 Build 0)  -->
<!DOCTYPE svg PUBLIC "-//W3C//DTD SVG 1.1//EN" "http://www.w3.org/Graphics/SVG/1.1/DTD/svg11.dtd">
<svg version="1.1" id="Layer_1" xmlns="http://www.w3.org/2000/svg" xmlns:xlink="http://www.w3.org/1999/xlink" x="0px" y="0px"
	 viewBox="0 0 30 30" enable-background="new 0 0 30 30" xml:space="preserve">
<g>
	<rect x="1" y="1" opacity="0.6" fill="#595655" width="28" height="28"/>
	<path fill="#FFFFFF" d="M0,0v30h30V0H0z M29,29H1V1h28V29z"/>
</g>
<polygon fill="#FFFFFF" points="20,14 19,14 19,13 18,13 18,12 17,12 17,11 16,11 16,10 15,10 15,9 14,9 14,8 13,8 13,7 12,7 12,6 
	11,6 11,23 12,23 12,22 13,22 13,21 14,21 14,20 15,20 15,19 16,19 16,18 17,18 17,17 18,17 18,16 19,16 19,15 20,15 "/>
</svg>
