<?xml version="1.0" encoding="utf-8"?>
<!-- Generator: Adobe Illustrator 18.0.0, SVG Export Plug-In . SVG Version: 6.00 Build 0)  -->
<!DOCTYPE svg PUBLIC "-//W3C//DTD SVG 1.1//EN" "http://www.w3.org/Graphics/SVG/1.1/DTD/svg11.dtd">
<svg version="1.1" id="Layer_1" xmlns="http://www.w3.org/2000/svg" xmlns:xlink="http://www.w3.org/1999/xlink" x="0px" y="0px"
	 viewBox="0 0 30 30" enable-background="new 0 0 30 30" xml:space="preserve">
<path fill="#EAEAEA" d="M15.5,3C9.1,3,4,8.1,4,14.5C4,20.9,9.1,26,15.5,26S27,20.9,27,14.5C27,8.1,21.9,3,15.5,3z M6,13.5
	C6,12.1,7.1,11,8.5,11c1.4,0,2.5,1.1,2.5,2.5c0,1.4-1.1,2.5-2.5,2.5C7.1,16,6,14.9,6,13.5z M12.5,23c-1.4,0-2.5-1.1-2.5-2.5
	c0-1.4,1.1-2.5,2.5-2.5c1.4,0,2.5,1.1,2.5,2.5C15,21.9,13.9,23,12.5,23z M15.5,16c-0.8,0-1.5-0.7-1.5-1.5s0.7-1.5,1.5-1.5
	s1.5,0.7,1.5,1.5S16.3,16,15.5,16z M14.5,10C13.1,10,12,8.9,12,7.5C12,6.1,13.1,5,14.5,5S17,6.1,17,7.5C17,8.9,15.9,10,14.5,10z
	 M20.5,22c-1.4,0-2.5-1.1-2.5-2.5c0-1.4,1.1-2.5,2.5-2.5s2.5,1.1,2.5,2.5C23,20.9,21.9,22,20.5,22z M21.5,14c-1.4,0-2.5-1.1-2.5-2.5
	c0-1.4,1.1-2.5,2.5-2.5s2.5,1.1,2.5,2.5C24,12.9,22.9,14,21.5,14z"/>
<path fill="#EAEAEA" d="M4.8,21H3v5h7.6C8.2,25,6.2,23.2,4.8,21z"/>
</svg>
