<?xml version="1.0" encoding="windows-1252"?>
<!-- Generator: Adobe Illustrator 16.0.0, SVG Export Plug-In . SVG Version: 6.00 Build 0)  -->
<!DOCTYPE svg PUBLIC "-//W3C//DTD SVG 1.1//EN" "http://www.w3.org/Graphics/SVG/1.1/DTD/svg11.dtd">
<svg version="1.1" id="design" xmlns="http://www.w3.org/2000/svg" xmlns:xlink="http://www.w3.org/1999/xlink" x="0px" y="0px" width="882.297px" height="484.973px" viewBox="0 0 882.297 484.973" style="enable-background:new 0 0 882.297 484.973;" xml:space="preserve">
<g id="CINEMAS">
	<path style="fill:#043B68;" d="M754.668,477.918l3.09-3.652c4.598,4.156,9.004,6.234,15.117,6.234c5.92,0,9.824-3.146,9.824-7.494   v-0.127c0-4.092-2.203-6.424-11.463-8.375c-10.139-2.207-14.803-5.48-14.803-12.727v-0.123c0-6.932,6.109-12.033,14.488-12.033   c6.422,0,11.023,1.826,15.492,5.418l-2.895,3.844c-4.094-3.34-8.191-4.787-12.727-4.787c-5.73,0-9.383,3.146-9.383,7.115v0.127   c0,4.158,2.268,6.486,11.969,8.566c9.824,2.143,14.359,5.73,14.359,12.471v0.127c0,7.559-6.297,12.471-15.051,12.471   C765.693,484.973,759.961,482.645,754.668,477.918z"/>
	<path style="fill:#043B68;" d="M658.215,439.936h4.66l20.094,44.408h-5.354l-5.166-11.654h-24l-5.227,11.654h-5.102   L658.215,439.936z M670.5,468.219l-10.018-22.488l-10.078,22.488H670.5z"/>
	<path style="fill:#043B68;" d="M520.434,440.252h5.039l16.064,24.061l16.064-24.061h5.039v44.092h-4.979v-35.713l-16.064,23.619   h-0.25l-16.063-23.559v35.652h-4.852V440.252z"/>
	<path style="fill:#043B68;" d="M411.447,440.252h31.873v4.535h-26.898v15.053h24.063v4.535h-24.063v15.434h27.211v4.535h-32.186   V440.252z"/>
	<path style="fill:#043B68;" d="M294.895,440.252h4.662l27.779,35.338v-35.338h4.848v44.092h-3.965l-28.473-36.156v36.156h-4.852   V440.252z"/>
	<path style="fill:#043B68;" d="M210.225,440.252h4.979v44.092h-4.979V440.252z"/>
	<path style="fill:#043B68;" d="M94.559,462.424v-0.127c0-12.471,9.32-22.801,22.297-22.801c8,0,12.789,2.836,17.197,6.99   l-3.4,3.656c-3.719-3.527-7.875-6.047-13.859-6.047c-9.764,0-17.07,7.934-17.07,18.076v0.125c0,10.205,7.371,18.203,17.07,18.203   c6.047,0,10.016-2.328,14.236-6.359l3.275,3.213c-4.6,4.658-9.639,7.746-17.637,7.746C103.945,485.1,94.559,475.086,94.559,462.424   z"/>
</g>
<g id="UNIVERSAL">
	<path style="fill:#58595B;" d="M811.344,295.338h11.852v94.055h59.102v10.951h-70.953V295.338z"/>
	<path style="fill:#58595B;" d="M731.697,294.588h11.1l47.855,105.756h-12.754L765.6,372.59h-57.154l-12.453,27.754h-12.148   L731.697,294.588z M760.947,361.941l-23.85-53.555l-24,53.555H760.947z"/>
	<path style="fill:#58595B;" d="M592.195,385.043l7.35-8.699c10.951,9.898,21.451,14.852,36,14.852   c14.104,0,23.402-7.504,23.402-17.855v-0.297c0-9.75-5.25-15.303-27.303-19.953c-24.152-5.25-35.252-13.051-35.252-30.301v-0.299   c0-16.502,14.553-28.652,34.502-28.652c15.303,0,26.254,4.35,36.902,12.9l-6.898,9.152c-9.75-7.953-19.504-11.402-30.301-11.402   c-13.652,0-22.355,7.5-22.355,16.949v0.303c0,9.9,5.402,15.447,28.504,20.4c23.402,5.1,34.201,13.652,34.201,29.699v0.303   c0,18-15,29.701-35.85,29.701C618.445,401.844,604.795,396.295,592.195,385.043z"/>
	<path style="fill:#58595B;" d="M490.645,295.338h45.152c12.9,0,23.25,3.9,29.852,10.5c5.102,5.1,8.102,12.451,8.102,20.701v0.299   c0,17.402-12,27.604-28.5,30.604l32.25,42.902h-14.551l-30.453-40.801h-30v40.801h-11.852V295.338z M534.746,348.891   c15.754,0,27.004-8.102,27.004-21.602v-0.299c0-12.902-9.902-20.701-26.852-20.701h-32.402v42.602H534.746z"/>
	<path style="fill:#58595B;" d="M390.145,295.338h75.906v10.799h-64.055v35.854h57.305v10.803h-57.305v36.75h64.805v10.801h-76.656   V295.338z"/>
	<path style="fill:#58595B;" d="M268.645,295.338h13.203l37.35,90.455l37.502-90.455h12.75l-45.152,105.756h-10.5L268.645,295.338z"/>
	<path style="fill:#58595B;" d="M235.047,295.338h11.852v105.006h-11.852V295.338z"/>
	<path style="fill:#58595B;" d="M115.496,295.338h11.102l66.154,84.154v-84.154h11.553v105.006h-9.453l-67.805-86.105v86.105   h-11.551V295.338z"/>
	<path style="fill:#58595B;" d="M0,356.391v-61.053h11.85v60.303c0,22.652,12,35.402,32.104,35.402   c19.352,0,31.652-11.699,31.652-34.652v-61.053h11.852v60.152c0,30.604-17.553,46.502-43.805,46.502   C17.699,401.992,0,386.094,0,356.391z"/>
</g>
<path id="logo" style="fill:#043B68;" d="M530.996,220.432c27.267,1.161,53.989,2.847,80.063,5.02  c84.289,7.029,161.77,19.149,228.699,35.234c-59.808-25.41-136.617-45.056-223.751-56.438c1.389-8.881,2.142-17.973,2.142-27.245  C618.148,79.244,538.902,0,441.148,0s-177,79.244-177,177.002c0,9.272,0.753,18.364,2.141,27.245  c-87.134,11.382-163.942,31.028-223.75,56.438c66.924-16.084,144.397-28.204,228.678-35.232c6.34-0.524,12.713-1.027,19.131-1.5  c-0.001-0.002-0.001-0.005-0.002-0.008c2.978-0.218,5.973-0.423,8.966-0.628c2.924-0.201,5.852-0.397,8.791-0.585  c1.26-0.081,2.523-0.159,3.787-0.238c3.721-0.23,7.449-0.455,11.193-0.666c0.392-0.022,0.784-0.044,1.176-0.066  c9.049-0.504,18.163-0.952,27.336-1.342c0.001-0.001,0.002-0.003,0.003-0.004c24.247-1.032,48.914-1.657,73.94-1.839  c5.192-0.037,10.394-0.061,15.611-0.061c5.163,0,10.306,0.024,15.438,0.06c25.187,0.181,50.01,0.812,74.406,1.853  C530.994,220.429,530.995,220.43,530.996,220.432z M441.148,193.203c-2.967,0-5.927,0.012-8.883,0.03  c-6.062-3.09-10.223-9.376-10.223-16.647c0-10.318,8.371-18.691,18.691-18.691c10.328,0,18.695,8.373,18.695,18.691  c0,7.267-4.153,13.549-10.209,16.641C446.534,193.212,443.844,193.203,441.148,193.203z M441.289,134.41  c-25.594,0-46.342-20.75-46.342-46.344c0-25.598,20.748-46.344,46.342-46.344s46.348,20.746,46.348,46.344  C487.637,113.66,466.883,134.41,441.289,134.41z M475.039,191.047c-2.654,1.922-6.363,1.342-8.289-1.307  c-1.924-2.654-1.338-6.363,1.316-8.285c2.645-1.928,6.357-1.342,8.281,1.313C478.273,185.416,477.684,189.125,475.039,191.047z   M463.162,155.023c-2.65,1.928-6.363,1.336-8.285-1.313c-1.928-2.648-1.342-6.357,1.313-8.285c2.648-1.922,6.357-1.336,8.283,1.318  C466.402,149.387,465.811,153.102,463.162,155.023z M418.186,145.438c2.654-1.922,6.363-1.336,8.285,1.313  c1.928,2.654,1.342,6.357-1.313,8.285c-2.646,1.922-6.357,1.336-8.283-1.313C414.951,151.074,415.539,147.365,418.186,145.438z   M413.41,191.17c-2.652,1.928-6.363,1.342-8.285-1.313c-1.928-2.648-1.336-6.357,1.309-8.285c2.652-1.928,6.361-1.336,8.285,1.313  C416.645,185.539,416.059,189.242,413.41,191.17z M403.549,149.117c0,25.594-20.748,46.336-46.342,46.336  s-46.342-20.742-46.342-46.336c0-25.598,20.748-46.344,46.342-46.344S403.549,123.52,403.549,149.117z M571.713,149.117  c0,25.594-20.744,46.336-46.342,46.336c-25.594,0-46.342-20.742-46.342-46.336c0-25.598,20.748-46.344,46.342-46.344  C550.969,102.773,571.713,123.52,571.713,149.117z M283.066,176.586c0-87.078,70.59-157.67,157.668-157.67  c45.668,0,86.781,19.436,115.574,50.463c-28.137-26.135-65.816-42.141-107.246-42.141c-87.08,0-157.674,70.594-157.674,157.674  c0,5.481,0.299,10.89,0.849,16.224c-2.38,0.26-4.753,0.525-7.119,0.798C283.775,193.683,283.066,185.219,283.066,176.586z"/>
</svg>